<svg id="Calque_1" data-name="Calque 1" xmlns="http://www.w3.org/2000/svg" viewBox="0 0 141.73 141.73"><defs><style>.cls-1{fill:#d39f43;}</style></defs><title>logo1</title><path class="cls-1" d="M312.88,100.92c.86-2,1.63-4.08,2.57-6a38.34,38.34,0,0,1,7.31-10.44c4.29-4.34,8.74-8.52,13-12.86,4.1-4.14,7.77-8.63,9.76-14.37,2.76-7.92,1.91-15.44-2-22.72a47.49,47.49,0,0,0-9.1-11.58c-.77-.75-1.41-1.65-2-2.28,1.21.55,2.71,1.22,4.2,1.91A92.5,92.5,0,0,1,363.49,41.6a72.89,72.89,0,0,1,13.93,19.19,61.18,61.18,0,0,1,5.81,19.48,70.3,70.3,0,0,1-6.21,39.4c-1.24,2.65-2.79,5.15-4.23,7.7a2.27,2.27,0,0,1-2.21,1.16c-7.22,0-14.45,0-21.68,0a1.74,1.74,0,0,0-1.41.65c-1.4,1.47-2.85,2.88-4.37,4.4a11.12,11.12,0,0,0-2.7-4.07,4,4,0,0,0-2.49-1.05,4.57,4.57,0,0,0-4.94,2.18c-.27.44-.78.72-1.09,1.14-1.42,2-3.26,2.05-5.32,1.42a19.94,19.94,0,0,1-13.26-12.42c-.11-.29-.23-.57-.38-1a20.22,20.22,0,0,1-4.29,7.52,18.93,18.93,0,0,1-10.3,6.06l-.16,0a3.27,3.27,0,0,1-3.6-1.08c-.95-1.16-2.08-2.17-3.07-3.3a1.41,1.41,0,0,0-1.27-.57c-.87,0-1.75-.05-2.61,0a3.48,3.48,0,0,0-1.64.58,9.72,9.72,0,0,0-3.2,4.48c-1.52-1.52-3-3-4.45-4.48a1.68,1.68,0,0,0-1.35-.58c-7.18,0-14.35,0-21.53,0a2.83,2.83,0,0,1-2.64-1.61,73.58,73.58,0,0,1-6.13-12.35,71.07,71.07,0,0,1-4.37-31.1,62.66,62.66,0,0,1,13.84-34.8,92.18,92.18,0,0,1,35.36-27.2c.7-.31,1.4-.64,2.1-1-.47.55-.9,1.14-1.41,1.64a53.44,53.44,0,0,0-8.61,10.15c-2.84,4.67-4.86,9.65-4.87,15.28a29.8,29.8,0,0,0,7,19.07c3.39,4.26,7.52,7.69,11.3,11.51,2.71,2.72,5.45,5.44,8,8.35A38.9,38.9,0,0,1,312.88,100.92Zm54.77,23.61-.55-1c-4.75-8.58-6.26-17.61-3.3-27.19,1-3.39,2.33-6.69,3.45-10,2.54-7.63,1.29-14.57-3.72-20.69-1.61-2-3.54-3.62-5.32-5.42l-.47-.44a30,30,0,0,1,8,7.56,21.07,21.07,0,0,1,4.07,14.58,47.7,47.7,0,0,1-2.25,9.69,52.86,52.86,0,0,0-2.34,9.77,29.58,29.58,0,0,0,3.14,16.86,36.48,36.48,0,0,0,4.58,7,1,1,0,0,0,.12-.19,87.75,87.75,0,0,0,6.68-31.78,77.71,77.71,0,0,0-2.91-22.1c-4.9-17.81-14.69-31.69-30.15-41-1.15-.69-2.32-1.32-3.48-2,.74,1.2,1.57,2.24,2.34,3.33a30.79,30.79,0,0,1,5.82,15.65,32,32,0,0,1-2.48,14.58,41.57,41.57,0,0,1-9,13.3c-3.74,3.82-7.64,7.48-11.48,11.2A46.71,46.71,0,0,0,319.07,98c-3.62,7-4.69,14.28-2.26,21.92a17.73,17.73,0,0,0,8.06,10.16,4.75,4.75,0,0,0,3.7.68c2.37-.61,2.93-1.84,1.91-4.11-.74-1.62-1.47-3.24-2.17-4.87a3,3,0,0,1,.32-3.09c1-1.34,2.22-2.52,3.34-3.77l.21.12c-.67,1.57-.14,3,.51,4.35s1.41,2.84,2,4.3c.32.78.72,1.18,1.56,1,2.25-.42,4,.53,5.35,2.32.41.53.91,1,1.35,1.48.29.33.54.68.84,1.06a1.83,1.83,0,0,0,.22-2.12c-.83-1.86-1.68-3.71-2.47-5.58a3.14,3.14,0,0,1,.32-3.25c1-1.29,2.16-2.44,3.19-3.57a13.26,13.26,0,0,0,.4,3.19c.77,2,1.76,3.92,2.68,5.86.08.17.3.38.46.38,1.24,0,2.47,0,3.77,0-.79-1.5-1.58-2.86-2.25-4.28a28.41,28.41,0,0,1-2.83-13.63,34.49,34.49,0,0,1,2.76-11.2c1.39-3.52,2.94-7,4.21-10.55A10.43,10.43,0,0,0,353,74.65a.73.73,0,0,1-.06-.21l.22-.14a25.12,25.12,0,0,1,1.69,2.92A12.57,12.57,0,0,1,355,86c-1.27,4.09-2.67,8.13-3.9,12.23a25.9,25.9,0,0,0-1,12.14c.89,4.93,3.28,9,6.2,12.94,1.08,1.44,2.28,1.25,3.65,1.15a.77.77,0,0,0-.06-.23l-.46-.81c-5.24-9.31-6.4-19-2.51-29.17,1.14-3,2.31-5.91,3.31-8.92A16.22,16.22,0,0,0,357.32,69a28.34,28.34,0,0,0-2.35-2.3l.22-.25c.26.22.54.43.79.66,4.74,4.19,7,9.47,6.11,16a52.42,52.42,0,0,1-2,7.65c-1.06,3.53-2.31,7-2.72,10.72-.95,8.69,2.05,16,7.17,22.63a1.1,1.1,0,0,0,.67.4C366,124.56,366.74,124.53,367.65,124.53ZM293.94,115c.84.84,1.68,1.68,2.51,2.54a3.91,3.91,0,0,1,.9,4.88c-.71,1.69-1.52,3.34-2.25,5a1.81,1.81,0,0,0,.71,2.57,4.3,4.3,0,0,0,4.88.21,16.91,16.91,0,0,0,7.71-8.53,26,26,0,0,0,.46-19,35.45,35.45,0,0,0-8.31-13.47c-3.61-3.73-7.35-7.31-11.1-10.88a58.77,58.77,0,0,1-9.92-11.78,33.05,33.05,0,0,1-5-19.74A29.23,29.23,0,0,1,279.35,33c1-1.64,2.24-3.18,3.43-4.85a6.54,6.54,0,0,0-.63.29A63.3,63.3,0,0,0,258,50.6,77.78,77.78,0,0,0,246.26,96a85.87,85.87,0,0,0,6.07,27.78c.18.46.37.92.58,1.42.14-.13.21-.18.26-.24,6.7-8.43,9.45-17.85,6.51-28.67-.91-3.37-2-6.69-2.87-10.07A21.39,21.39,0,0,1,259.69,68a32.18,32.18,0,0,1,7.07-7.42c.58-.44,1.18-.86,1.76-1.29a4.59,4.59,0,0,1-.84.91,72.62,72.62,0,0,0-5.46,5.64c-4.66,5.82-6.1,12.42-3.75,19.74.91,2.83,1.92,5.63,2.91,8.43a34.87,34.87,0,0,1,2,15.78,35.81,35.81,0,0,1-4.68,13.83l-.39.75a3.13,3.13,0,0,0,4.14-1.75c.08-.15.2-.27.29-.41,5.2-7.48,7.26-15.69,5-24.79-.82-3.3-2-6.51-3-9.76a21.78,21.78,0,0,1-1-9.94c.81-4.92,3.5-8.57,7.23-11.49,0,0,.11,0,.22,0l-.41.39c-5.9,5.46-7.49,11.5-4.95,19.32.88,2.72,2,5.35,3,8a34.72,34.72,0,0,1,2.43,12.39,34.73,34.73,0,0,1-5,17.22c-.15.26-.28.53-.48.91a14.73,14.73,0,0,1,1.64,0,1.67,1.67,0,0,0,1.73-.83c1.32-2,2.81-3.87,4-6a23.64,23.64,0,0,0,2.9-12.46,33.59,33.59,0,0,0-1.85-9.16c-1-3.18-2.19-6.32-3.18-9.52a15.74,15.74,0,0,1-.62-7.59,8.56,8.56,0,0,1,3.21-5.34,9.86,9.86,0,0,0-2.59,5.14,14,14,0,0,0,1.1,7.66c1.56,3.92,3.2,7.8,4.68,11.75a27.31,27.31,0,0,1,1.68,12.42,31.16,31.16,0,0,1-4.56,13c-.16.27-.31.54-.52.92a11.62,11.62,0,0,1,1.88,0c1.7.31,2.68-.35,3.26-2.09.8-2.42,2.85-4.45,2-7.39l.34-.22c.71.85,1.39,1.75,2.15,2.56,1.67,1.79,1.91,3,1,5.32-.1.23-.21.46-.31.7-.64,1.41-1.3,2.82-1.92,4.24a1.52,1.52,0,0,0,.29,1.88c1.18-1.28,2.31-2.55,3.49-3.78a3,3,0,0,1,2.64-1.05,8.65,8.65,0,0,0,2,0,1,1,0,0,0,.71-.47c.57-1.1,1.1-2.23,1.61-3.36C293.36,119,294.57,117.31,293.94,115Z" transform="translate(-242.09 -20.52)"/><path class="cls-1" d="M306.06,162.24a5.93,5.93,0,0,1-.53-.81q-3.7-8.06-7.38-16.1c-.11-.26-.24-.51-.36-.76h-.24c0,.91,0,1.82,0,2.73-.08,3.39-.17,6.79-.25,10.18,0,1,.05,2,1.23,2.41.12,0,.17.34.25.51l-.14.22c-1.2-.32-2.4-.62-3.59-1-.13,0-.17-.37-.28-.61,1.21,0,1.51-.23,1.55-1.42q.19-5.94.35-11.88c0-.77,0-1.54.05-2.31a1.24,1.24,0,0,0-.83-1.39c-.2-.07-.33-.34-.49-.52l.15-.19c.7,0,1.41-.05,2.11,0a1.09,1.09,0,0,1,.65.6c2.19,4.68,4.35,9.37,6.52,14.07a4.37,4.37,0,0,0,.63,1.08c0-.35,0-.69.05-1l.15-11.55a5.91,5.91,0,0,0-.06-1.11c-.1-.61-.3-1.15-1-1.28-.14,0-.24-.28-.37-.43.16-.12.32-.33.48-.33,1.09,0,2.18,0,3.53,0-.2.36-.3.75-.45.78-1,.18-1.12.94-1.15,1.72-.08,1.82-.11,3.65-.14,5.47,0,3.94-.07,7.87-.11,11.81,0,.33-.06.66-.09,1Z" transform="translate(-242.09 -20.52)"/><path class="cls-1" d="M319.3,162.14h-4.69c-.1-.35-.06-.55.49-.54,1,0,1.34-.37,1.18-1.38-.36-2.35-.83-4.69-1.25-7.05h-3.45c-.45,2.29-.91,4.54-1.31,6.8-.21,1.18.2,1.58,1.5,1.62.19.42.15.67-.39.67-1.12,0-2.23,0-3.34,0l-.18-.31c.12-.2.21-.53.37-.57a1.46,1.46,0,0,0,1-1.29c.47-2.22,1-4.45,1.39-6.68.7-3.54,1.36-7.08,2-10.63.1-.56.13-1.12.19-1.7,1.28-.3,1.33-.24,1.6,1.2,1.09,5.7,2.17,11.39,3.3,17.08.16.83.16,1.9,1.36,2.07C319.19,161.43,319.21,161.76,319.3,162.14Zm-7.43-10.4h2.85c-.46-2.43-.9-4.77-1.35-7.12l-.16,0Z" transform="translate(-242.09 -20.52)"/><path class="cls-1" d="M368.38,133.76c-.6.85-1.19,1.73-1.82,2.55a75.4,75.4,0,0,1-16.05,16.1,45.86,45.86,0,0,1-4,2.45,6.35,6.35,0,0,1-1.69.62,2.06,2.06,0,0,1-2.59-2,8.58,8.58,0,0,1,.4-2.49.71.71,0,0,1,1.1-.49.77.77,0,0,1,.24,1.17,1.33,1.33,0,0,0,.13,1.84,1.44,1.44,0,0,0,1.82.12,4.08,4.08,0,0,0,2-2.31,1.69,1.69,0,0,0-.67-2.29c-.86-.59-1.79-1.08-2.67-1.65a3.56,3.56,0,0,1-1.64-3.15c0-2.35,1.55-3.69,3.77-3.19l1.89.43.23,2-.22.1a3.34,3.34,0,0,0-.37-.53,7.27,7.27,0,0,0-1.34-1.32,1.68,1.68,0,0,0-2.17.34,1.94,1.94,0,0,0-.24,2.36,9.07,9.07,0,0,0,1.76,1.74,15.5,15.5,0,0,0,1.64.94,2.42,2.42,0,0,1,1.24,3.21,20.75,20.75,0,0,1-.89,2.16,79.07,79.07,0,0,0,20.2-18.76Z" transform="translate(-242.09 -20.52)"/><path class="cls-1" d="M329,141.39h4.53c-.3.31-.42.57-.6.61a1.15,1.15,0,0,0-.93,1.14c0,.74-.06,1.48,0,2.22.07,2.59.13,5.18.26,7.77a9.38,9.38,0,0,0,.51,2.58,2.39,2.39,0,0,0,3.48,1.59,4.9,4.9,0,0,0,3.17-4.49c.13-2.53,0-5.07,0-7.6,0-.6-.05-1.2-.08-1.79-.05-.78-.29-1.39-1.13-1.54-.16,0-.28-.24-.59-.53h4.07c-.15.22-.23.45-.33.46-1,.11-1.17.87-1.14,1.73.05,2.2.19,4.39.16,6.58a19.42,19.42,0,0,1-.46,4.31,6.16,6.16,0,0,1-4.49,4.63,2.77,2.77,0,0,1-3.8-1.94,15.63,15.63,0,0,1-.8-3.9c-.18-2.84-.19-5.69-.28-8.54a10.4,10.4,0,0,0-.1-1.37,1.37,1.37,0,0,0-1-1.27c-.19,0-.33-.28-.49-.43Z" transform="translate(-242.09 -20.52)"/><path class="cls-1" d="M258,132.74c2.36,2.74,4.66,5.55,7.12,8.21a64.93,64.93,0,0,0,10,8.71c1.39,1,2.81,1.94,4.27,2.8a11.69,11.69,0,0,0,2.37.9c.71.23,1.22-.1,1.12-.85a7.41,7.41,0,0,0-.86-2.78,46.55,46.55,0,0,0-2.9-3.69,5.62,5.62,0,0,1-.75-1.12,2.58,2.58,0,0,1,2-3.89,8.65,8.65,0,0,1,2,.16c.42.06.84.18,1.39.3L284,144l-.22.08c-.13-.26-.27-.52-.39-.79-.44-1-1.06-1.81-2.25-1.8a1.66,1.66,0,0,0-1.46,2.64,23,23,0,0,0,2.15,2.67,9,9,0,0,1,2.57,5.12c.18,2.18-1.09,3.3-3.1,2.71a9.69,9.69,0,0,1-1.94-.89,51.32,51.32,0,0,1-11.43-9.06,81.36,81.36,0,0,1-9.33-11.1C258.39,133.31,258.19,133,258,132.74Z" transform="translate(-242.09 -20.52)"/><path class="cls-1" d="M327.7,141.11l.39,4.95-.24.07a3.19,3.19,0,0,1-.24-.65c-.41-2.86-.41-2.86-3.16-2.8-.21,0-.43,0-.72,0,0,1.4,0,2.78,0,4.16.06,3.74.14,7.47.21,11.2,0,.34,0,.68,0,1,.1,1.08.39,1.37,1.73,1.48-.34.35-.51.67-.73.71-1.28.24-2.58.41-4.17.64.25-.42.33-.77.51-.83a1.47,1.47,0,0,0,1.05-1.47c.05-1.11.05-2.22,0-3.33q-.1-6.57-.22-13.16a2.94,2.94,0,0,0,0-.37,13,13,0,0,0-2.58.05c-.38.07-.79.64-1,1.08a9.27,9.27,0,0,0-.27,1.85,1.29,1.29,0,0,1-.29.69v-5.32a15.4,15.4,0,0,0,1.82.22c2,0,4.09,0,6.13,0A12.64,12.64,0,0,0,327.7,141.11Z" transform="translate(-242.09 -20.52)"/><path class="cls-1" d="M293.91,155.06l-.27,4c-1.37.1-8.2-2.63-8.68-3.53l.72.18c.84.26,1.19.06,1.26-.86s.06-2,.09-3c.09-2.59.21-5.18.27-7.77.05-1.8,0-1.8-1.35-2.67,2.54-.32,5.1,0,7.69-.14v4l-.21.06a6.39,6.39,0,0,1-.2-.84c-.17-1.77-.46-2.08-2.18-2.18-.7,0-1.41,0-2.26,0v6.34c.71.12,1.54.28,2.37.4s1-.32,1.2-1a1.61,1.61,0,0,1,.36-.84v5.38l-.27.06a3.87,3.87,0,0,1-.2-.72c-.11-1.41-.28-1.62-1.62-1.91l-2.16-.42c0,2,0,4,0,5.95a1.32,1.32,0,0,0,.16.57c.38.82,3.13,1.88,3.88,1.42a2.14,2.14,0,0,0,.69-1,12.29,12.29,0,0,0,.42-1.5Z" transform="translate(-242.09 -20.52)"/><path class="cls-1" d="M345.68,134.62c.37.77.71,1.48,1.06,2.17a2.06,2.06,0,0,1-.41,2.56,1.93,1.93,0,0,1-2.49.14,2.15,2.15,0,0,1-.58-2.61A5.46,5.46,0,0,1,345.68,134.62Z" transform="translate(-242.09 -20.52)"/><path class="cls-1" d="M340.78,134.59c.36.75.67,1.44,1,2.1a2.08,2.08,0,0,1-.46,2.74,1.87,1.87,0,0,1-2.53-.08,2.08,2.08,0,0,1-.26-2.77A5.12,5.12,0,0,1,340.78,134.59Z" transform="translate(-242.09 -20.52)"/><path class="cls-1" d="M280.26,134.58a5.35,5.35,0,0,1,2.4,2.33,2,2,0,0,1-.53,2.53,2,2,0,0,1-2.49,0,2.16,2.16,0,0,1-.51-2.55C279.49,136.12,279.87,135.38,280.26,134.58Z" transform="translate(-242.09 -20.52)"/><path class="cls-1" d="M285.15,134.59a5.3,5.3,0,0,1,2.34,2.21,2.08,2.08,0,0,1-.43,2.61,2,2,0,0,1-2.49,0,2.14,2.14,0,0,1-.54-2.6Z" transform="translate(-242.09 -20.52)"/><path class="cls-1" d="M331.7,106c.4.82.76,1.55,1.11,2.28a2,2,0,0,1-.49,2.54,1.86,1.86,0,0,1-2.42.1,2,2,0,0,1-.59-2.58A5.35,5.35,0,0,1,331.7,106Z" transform="translate(-242.09 -20.52)"/><path class="cls-1" d="M288.75,106a5.45,5.45,0,0,1,2.38,2.28,2,2,0,0,1-.46,2.54,1.91,1.91,0,0,1-2.48.07,2.13,2.13,0,0,1-.59-2.52C288,107.6,288.35,106.83,288.75,106Z" transform="translate(-242.09 -20.52)"/><path class="cls-1" d="M294.11,106a5.54,5.54,0,0,1,2.45,2.26,2.09,2.09,0,0,1-.46,2.62,1.9,1.9,0,0,1-2.55,0,2.16,2.16,0,0,1-.41-2.63c.19-.35.41-.68.57-1A10.8,10.8,0,0,0,294.11,106Z" transform="translate(-242.09 -20.52)"/></svg>